<?xml version="1.0" standalone="no"?>
<!DOCTYPE svg PUBLIC "-//W3C//DTD SVG 20010904//EN"
 "http://www.w3.org/TR/2001/REC-SVG-20010904/DTD/svg10.dtd">
<svg version="1.0" xmlns="http://www.w3.org/2000/svg"
 width="260.000000pt" height="260.000000pt" viewBox="0 0 260.000000 260.000000"
 preserveAspectRatio="xMidYMid meet">
<metadata>
Created by potrace 1.11, written by Peter Selinger 2001-2013
</metadata>
<g transform="translate(0.000000,260.000000) scale(0.100000,-0.100000)"
fill="#000000" stroke="none">
<path d="M0 1300 l0 -1300 1300 0 1300 0 0 1300 0 1300 -1300 0 -1300 0 0
-1300z m1979 1040 c10 -5 24 -23 31 -40 12 -29 14 -30 79 -30 67 0 67 0 84 34
9 19 25 37 37 41 25 8 114 -32 153 -69 30 -28 30 -47 1 -93 -13 -21 -11 -28
16 -77 29 -50 33 -54 76 -59 25 -2 51 -10 57 -16 17 -17 16 -174 -2 -194 -8
-11 -29 -17 -55 -17 -39 -1 -42 -3 -73 -56 l-32 -55 20 -38 c11 -22 17 -46 13
-56 -10 -26 -123 -95 -155 -95 -22 0 -34 9 -52 38 -24 37 -24 37 -88 35 -62
-1 -65 -3 -87 -37 -16 -26 -29 -36 -48 -36 -50 0 -164 75 -164 108 0 10 9 31
20 49 l19 32 -32 55 c-31 53 -34 55 -73 56 -25 0 -47 6 -54 16 -8 8 -15 50
-18 92 -5 95 5 112 71 119 44 5 48 8 77 59 l30 53 -21 35 c-27 46 -19 68 39
105 76 48 103 57 131 41z m-985 -119 c77 -13 96 -41 96 -145 l0 -83 52 -24
c29 -13 78 -41 110 -61 l58 -38 78 42 c74 40 80 41 110 29 60 -25 212 -254
212 -320 0 -42 -34 -78 -107 -114 l-65 -33 -1 -126 -2 -127 59 -28 c89 -42
116 -68 116 -110 0 -71 -143 -293 -205 -319 -39 -16 -64 -10 -137 33 l-57 33
-64 -43 c-34 -24 -84 -52 -110 -63 l-47 -19 0 -82 c0 -100 -19 -130 -90 -144
-57 -11 -212 -11 -269 0 -70 14 -85 37 -91 138 l-5 86 -71 36 c-39 20 -87 49
-107 64 l-37 28 -62 -37 c-76 -44 -126 -48 -163 -14 -33 31 -116 152 -149 217
-49 98 -35 132 79 192 l61 31 0 129 0 129 -59 29 c-77 36 -107 67 -107 108 0
44 49 138 123 237 84 110 100 115 201 59 l76 -41 59 40 c32 22 82 50 110 61
l51 22 0 83 c0 105 17 129 100 143 71 11 191 12 254 2z m1008 -1086 c20 -30
28 -35 63 -35 22 0 49 -3 61 -6 16 -4 27 4 48 36 26 39 30 42 63 37 44 -8 119
-51 139 -82 14 -22 14 -27 -6 -65 l-21 -41 20 -28 c11 -16 25 -40 31 -55 8
-23 15 -26 54 -26 62 0 71 -15 71 -117 0 -97 -11 -113 -77 -113 -32 0 -40 -4
-54 -32 -9 -18 -23 -40 -31 -49 -12 -15 -11 -22 8 -63 l23 -46 -29 -30 c-38
-39 -128 -84 -153 -76 -10 4 -28 22 -38 41 -18 34 -20 35 -84 35 -64 0 -66 -1
-84 -35 -10 -19 -28 -37 -38 -41 -35 -11 -178 75 -178 107 0 5 8 26 19 47 l19
37 -30 53 c-28 48 -33 52 -67 52 -61 0 -73 16 -79 103 -6 100 9 127 71 127 40
1 43 3 74 56 l32 55 -21 44 c-21 44 -21 45 -2 66 29 32 115 79 146 79 21 0 34
-9 50 -35z"/>
<path d="M2033 2061 c-107 -50 -112 -201 -8 -251 52 -25 91 -25 133 0 67 41
90 120 54 189 -35 70 -108 95 -179 62z"/>
<path d="M734 1602 c-211 -102 -199 -418 18 -512 99 -42 256 -12 325 62 31 33
60 104 68 164 14 104 -43 219 -138 278 -41 25 -61 30 -130 33 -75 4 -88 2
-143 -25z"/>
<path d="M2025 881 c-48 -29 -67 -57 -72 -103 -10 -89 48 -158 132 -158 112 0
177 108 125 209 -33 66 -123 91 -185 52z"/>
</g>
</svg>
