<?xml version="1.0" standalone="no"?>
<!DOCTYPE svg PUBLIC "-//W3C//DTD SVG 20010904//EN"
 "http://www.w3.org/TR/2001/REC-SVG-20010904/DTD/svg10.dtd">
<svg version="1.0" xmlns="http://www.w3.org/2000/svg"
 width="140.000000pt" height="140.000000pt" viewBox="0 0 140.000000 140.000000"
 preserveAspectRatio="xMidYMid meet">
<metadata>
Created by potrace 1.11, written by Peter Selinger 2001-2013
</metadata>
<g transform="translate(0.000000,140.000000) scale(0.100000,-0.100000)"
fill="#000000" stroke="none">
<path d="M46 1354 c-17 -16 -12 -22 87 -123 58 -58 103 -112 100 -119 -6 -16
38 -52 57 -47 10 3 83 -62 200 -180 l185 -185 -190 -190 c-105 -105 -191 -186
-193 -180 -2 5 -8 10 -13 10 -15 0 -51 -41 -46 -53 3 -7 -43 -61 -102 -120
-100 -103 -105 -110 -86 -123 18 -13 27 -7 125 90 58 57 110 102 117 99 18 -6
52 33 47 54 -3 13 45 68 181 203 l185 185 185 -185 c133 -133 184 -190 181
-203 -5 -20 46 -75 53 -56 2 6 53 -38 113 -97 104 -104 110 -108 124 -89 13
18 8 26 -90 125 -57 58 -102 110 -99 117 5 12 -31 53 -46 53 -5 0 -11 -5 -13
-10 -2 -6 -88 75 -193 180 l-190 190 185 185 c133 133 190 184 203 181 20 -5
60 32 53 49 -2 5 44 58 102 117 101 103 105 108 87 122 -19 14 -27 8 -125 -88
-58 -58 -111 -102 -118 -99 -18 7 -51 -34 -46 -55 3 -12 -52 -74 -181 -202
l-185 -185 -190 190 c-104 104 -185 192 -179 195 14 9 2 32 -26 53 -18 13 -25
14 -25 5 0 -7 -49 36 -108 95 -103 103 -110 108 -126 91z"/>
</g>
</svg>
